PathFileType	4	(X/Y/Z)	Run_200 01
DataRate	CameraRate	NumFrames	NumMarkers	Units	OrigDataRate	OrigDataStartFrame	OrigNumFrames
120	120	7	42	mm	120	4	128
Frame#	Time	LASI			RASI			LPSI			RPSI			RTH1			RTH2			RTH3			LTH1			LTH2			LTH3			RTB1			RTB2			RTB3			LTB1			LTB2			LTB3			RCAL			RTOE			RMT5			LCAL			LTOE			LMT5			LACR			RACR			CLAV			C7			RUA1			RUA2			RUA3			RLEL			LUA1			LUA2			LUA3			LLEL			RFAsuperior			RFAradius			RFAulna			LFAsuperior			LFAradius			LFAulna			LMEL			RMEL			
		X1	Y1	Z1	X2	Y2	Z2	X3	Y3	Z3	X4	Y4	Z4	X5	Y5	Z5	X6	Y6	Z6	X7	Y7	Z7	X8	Y8	Z8	X9	Y9	Z9	X10	Y10	Z10	X11	Y11	Z11	X12	Y12	Z12	X13	Y13	Z13	X14	Y14	Z14	X15	Y15	Z15	X16	Y16	Z16	X17	Y17	Z17	X18	Y18	Z18	X19	Y19	Z19	X20	Y20	Z20	X21	Y21	Z21	X22	Y22	Z22	X23	Y23	Z23	X24	Y24	Z24	X25	Y25	Z25	X26	Y26	Z26	X27	Y27	Z27	X28	Y28	Z28	X29	Y29	Z29	X30	Y30	Z30	X31	Y31	Z31	X32	Y32	Z32	X33	Y33	Z33	X34	Y34	Z34	X35	Y35	Z35	X36	Y36	Z36	X37	Y37	Z37	X38	Y38	Z38	X39	Y39	Z39	X40	Y40	Z40	X41	Y41	Z41	X42	Y42	Z42	

1	0.166667	1097.034743	1042.710918	-421.843195	1083.226305	1052.323901	-191.414127	926.754627	1083.0003	-372.123535	919.454242	1082.349653	-271.807281	1052.818024	891.884725	-134.384282	1167.867247	769.230549	-162.00061	1134.79239	666.548793	-179.031308	1017.302088	869.0732369999999	-482.005169	1069.359599	761.111731	-449.013918	975.771828	649.160676	-439.590377	1241.344253	454.026865	-239.478664	1194.933599	390.476603	-180.264355	1244.768211	273.85043	-244.585743	912.5599130000001	417.759871	-377.118909	813.484536	383.742271	-426.711419	756.120082	301.009403	-361.3606	1136.710315	136.683049	-277.470679	1343.877792	105.108836	-300.925596	1325.081537	53.098174	-206.616453	603.222999	325.709408	-359.377664	673.077014	140.195913	-296.835742	633.844128	116.767522	-396.276915	1066.834674	1531.606309	-481.923878	1028.801471	1511.931809	-124.603812	1115.720803	1473.457276	-269.35348	1009.343661	1555.268015	-313.31186	974.706607	1454.05701	-80.730997	949.926233	1367.267508	-101.245803	871.378937	1400.407756	-113.038063	797.34897	1311.761879	-102.017755	1039.975294	1461.540158	-539.722818	971.394557	1416.217286	-531.458348	1027.022057	1361.213707	-571.735348	954.341588	1263.403345	-609.799185	836.99933	1233.202471	-70.03535599999999	878.5454109999999	1046.685811	-71.409048	818.1496540000001	1040.813926	-100.665999	1034.4898	1262.1605	-582.370781	1164.186634	1279.635963	-441.073188	1166.167187	1213.419115	-446.787142	905.26099	1263.952151	-550.64474	805.168754	1311.803472	-166.943537	
2	0.175	1097.581306	1039.077146	-421.688945	1083.436469	1048.584821	-190.972836	926.957948	1077.597204	-372.408992	919.509412	1076.649793	-272.276839	1054.529984	888.189925	-135.218098	1169.908907	766.5868379999999	-161.886173	1135.73754	663.030653	-180.173687	1021.858427	864.070722	-481.820832	1075.984064	756.962978	-447.490704	984.470519	643.331853	-439.501711	1239.218117	448.140693	-241.495531	1192.117101	386.023039	-181.33137	1237.491333	267.862729	-246.61659	918.934435	414.310739	-377.203011	818.697188	384.191803	-427.403697	757.743864	303.902127	-362.448066	1124.297418	134.426243	-277.111171	1329.722196	95.798997	-305.346267	1311.46421	47.578345	-208.243727	604.0936799999999	333.039569	-361.906614	671.342364	147.028476	-298.036317	632.489389	123.609104	-397.643826	1066.188226	1527.178239	-480.841956	1028.886405	1506.525294	-123.417858	1115.37291	1468.788866	-268.683898	1009.077983	1550.886451	-312.257056	975.394269	1447.853097	-79.148433	951.011118	1360.857663	-99.804914	872.120684	1393.408026	-110.351414	798.884333	1304.505569	-99.196158	1038.743697	1457.825751	-538.628659	969.7232729999999	1413.210589	-530.093607	1024.466835	1357.759718	-570.914484	950.627268	1261.0488	-609.421416	839.51094	1226.104068	-67.894249	882.29863	1039.92033	-70.41653700000001	821.342383	1033.940428	-98.946764	1030.775858	1257.915015	-582.284085	1161.627101	1270.428907	-441.733642	1162.09504	1204.325246	-449.832245	901.840416	1261.874168	-550.062043	806.017029	1304.862993	-164.403331	
3	0.183333	1098.082625	1034.576523	-421.714647	1083.666601	1044.23458	-190.531958	926.98513	1071.465065	-372.454523	919.60834	1070.059367	-272.633866	1056.782252	883.932156	-136.231365	1171.502617	762.681437	-162.461423	1136.404026	658.5482	-181.332827	1025.948359	858.520246	-481.700171	1082.233828	752.318252	-446.72455	993.222978	637.031286	-439.78899	1236.516827	441.436354	-243.853276	1188.854145	380.881684	-182.594478	1228.12019	261.183904	-249.045503	925.951475	410.489926	-377.531507	824.528286	384.508526	-428.19111	760.2956830000001	306.614949	-363.583765	1109.038503	130.556402	-276.576409	1313.320807	88.163725	-308.95209	1296.397231	44.508448	-208.682121	605.7837	339.945831	-364.481898	670.89283	153.607094	-299.465705	632.963784	130.219068	-399.342308	1065.44455	1522.040676	-479.818316	1028.907992	1500.429923	-122.263862	1114.963947	1463.46118	-268.049019	1008.675919	1545.882641	-311.246	976.086396	1440.869802	-77.636273	952.254993	1353.708059	-98.227017	872.897184	1385.506804	-107.497342	800.685258	1296.120864	-96.18259399999999	1037.461603	1453.371789	-537.608187	967.969497	1409.534928	-528.748814	1021.816742	1353.549045	-570.0333869999999	946.632739	1258.079956	-608.965002	842.450418	1217.987827	-65.596705	886.689867	1032.222004	-69.356443	825.235033	1026.011932	-97.144654	1026.712069	1252.987541	-582.101703	1158.86455	1259.960534	-442.36331	1157.562484	1194.085719	-452.969963	898.14176	1259.204026	-549.3009949999999	806.881375	1296.889473	-161.650664	
4	0.191667	1098.529614	1029.227254	-421.896933	1083.925676	1039.282762	-190.104579	926.801062	1064.599832	-372.31213	919.668815	1062.790986	-272.819553	1059.205885	878.851859	-137.17993	1172.443616	757.300981	-163.872469	1136.901822	652.960823	-182.47319	1029.572216	852.270371	-481.478175	1088.038269	747.175893	-446.769265	1001.842795	630.2733019999999	-440.426945	1233.030796	433.966094	-246.679981	1184.624429	375.142667	-184.501819	1216.300684	253.989166	-251.789098	933.562599	406.344519	-378.020809	831.028147	384.587551	-429.04216	763.821107	309.024963	-364.838274	1090.965044	124.777573	-276.040714	1295.112701	83.46745799999999	-311.264917	1280.270792	43.626643	-208.381849	608.600566	346.462322	-366.958419	671.724327	159.73761	-301.272369	634.818618	136.535427	-401.386415	1064.539856	1516.238567	-478.917864	1028.886859	1493.664817	-121.117105	1114.541371	1457.522829	-267.440198	1008.145581	1540.281458	-310.256035	976.808273	1433.1358	-76.180914	953.6782480000001	1345.860467	-96.52627	873.800714	1376.747767	-104.473558	802.7760479999999	1286.703185	-92.940172	1036.031248	1448.183868	-536.717927	966.089068	1405.160697	-527.439681	1019.047336	1348.587544	-569.123452	942.360441	1254.53366	-608.4304	845.807732	1208.890334	-63.16123	891.743106	1023.678658	-68.23119	830.025893	1016.953816	-95.298737	1022.318287	1247.356354	-581.883004	1155.849069	1248.34167	-443.027839	1152.554171	1182.80397	-455.77708	894.197415	1255.978765	-548.371446	807.772831	1287.964218	-158.609792	
5	0.2	1098.856987	1023.135515	-422.158459	1084.20268	1033.744953	-189.718103	926.490764	1056.944103	-372.114166	919.617211	1055.080291	-272.69358	1061.347503	872.673957	-137.877696	1172.69019	750.631725	-165.803146	1137.353205	646.280341	-183.555222	1032.79214	845.335391	-481.138712	1093.379588	741.565487	-447.519585	1010.201296	623.103964	-441.206489	1228.514315	425.885463	-249.882502	1178.902727	369.112538	-187.05531	1202.422807	246.597698	-254.444433	941.702406	402.000631	-378.634446	838.237658	384.34389	-429.956904	768.34947	311.060635	-366.280114	1070.977461	117.595152	-275.572573	1275.950538	81.57766599999999	-312.285512	1263.538388	43.927598	-207.929344	612.752055	352.611121	-369.190316	673.898922	165.282777	-303.556634	637.714595	142.551944	-403.813902	1063.422707	1509.859721	-478.195208	1028.853903	1486.296991	-119.94402	1114.163287	1451.043316	-266.870355	1007.504615	1534.143864	-309.264586	977.616361	1424.69287	-74.737853	955.290409	1337.330055	-94.727113	874.911254	1367.143887	-101.32177	805.201138	1276.372855	-89.42129300000001	1034.338059	1442.292274	-535.971917	964.026192	1400.080974	-526.161236	1016.093825	1342.884203	-568.178062	937.8081100000001	1250.476159	-607.790535	849.581419	1198.872377	-60.577696	897.462767	1014.371738	-67.090666	835.731556	1006.83455	-93.42382600000001	1017.609662	1240.991042	-581.699329	1152.487746	1235.66901	-443.843095	1147.06073	1170.565374	-458.154158	890.031098	1252.247738	-547.269043	808.78898	1278.170852	-155.198298	
6	0.208333	1098.964637	1016.49094	-422.407139	1084.459656	1027.6187	-189.397817	926.157319	1048.507268	-371.924944	919.394171	1047.04904	-272.197639	1062.848796	865.300262	-138.286729	1172.322886	743.1152949999999	-167.7042	1137.699477	638.702289	-184.557016	1035.675061	837.865282	-480.82871	1098.294914	735.572661	-448.783816	1018.270464	615.605942	-441.824771	1222.849826	417.459948	-253.085445	1171.489021	363.139672	-189.782742	1187.53516	239.391733	-256.586817	950.33441	397.61098	-379.483125	846.17659	383.756497	-430.976632	773.906385	312.714073	-367.921461	1050.497782	110.051013	-275.332523	1256.841261	81.234966	-312.526656	1246.604697	44.427787	-207.686195	618.312816	358.381803	-371.066552	677.447213	170.15047	-306.315393	641.5210959999999	148.283199	-406.671109	1062.057765	1503.040366	-477.665135	1028.843927	1478.455438	-118.710968	1113.871891	1444.124917	-266.383154	1006.779993	1527.58775	-308.247204	978.575209	1415.597699	-73.251071	957.107241	1328.133147	-92.862537	876.252117	1356.709345	-98.11272099999999	808.02236	1265.230045	-85.62204	1032.28179	1435.758004	-535.357964	961.710189	1394.329041	-524.880092	1012.870099	1336.474309	-567.176169	932.9751220000001	1245.986067	-606.975238	853.786103	1188.02375	-57.83648	903.853108	1004.385435	-66.02109299999999	842.169181	995.914432	-91.510957	1012.596221	1233.897147	-581.586589	1148.70504	1221.996374	-444.887538	1141.09075	1157.427092	-460.360831	885.659765	1248.069962	-545.963251	810.064563	1267.567576	-151.404342	
7	0.216667	1098.766664	1009.522419	-422.589133	1084.622242	1020.895098	-189.149843	925.801481	1039.476685	-371.662516	918.968875	1038.71739	-271.430106	1063.520605	857.003568	-138.466456	1171.3865	735.2288600000001	-169.126412	1137.59217	630.589523	-185.480438	1038.272516	830.038319	-480.717959	1102.882293	729.349928	-450.366239	1026.129952	607.895868	-442.054468	1216.139004	408.978463	-255.834041	1162.657471	357.31668	-192.190018	1172.721409	232.628427	-258.215641	959.465898	393.291522	-380.783786	854.847007	382.875973	-432.155428	780.514744	314.027096	-369.704262	1030.707868	103.11043	-275.67915	1238.50879	81.03006999999999	-312.710511	1229.703554	44.70402	-207.750421	625.234542	363.721821	-372.525248	682.3188280000001	174.286148	-309.461361	646.302519	153.730198	-409.98099	1060.42131	1495.962244	-477.304199	1028.887383	1470.324553	-117.399188	1113.677218	1436.914952	-266.034587	1006.005062	1520.780558	-307.186688	979.732579	1405.929574	-71.678415	959.177804	1318.337668	-90.983425	877.805919	1345.50325	-94.879698	811.317084	1253.342675	-81.61093700000001	1029.808328	1428.695184	-534.8600300000001	959.06976	1387.998847	-523.547241	1009.293963	1329.446129	-566.076319	927.865469	1241.141045	-605.89707	858.461654	1176.457142	-54.966433	910.942187	993.832419	-65.10231	849.113201	984.5368559999999	-89.53048	1007.285164	1226.162109	-581.5112370000001	1144.485293	1207.36114	-446.208867	1134.667568	1143.429392	-462.932673	881.114135	1243.507529	-544.422475	811.728297	1256.170343	-147.334912	
